<?xml version="1.0" encoding="UTF-8"?>
<!DOCTYPE svg PUBLIC "-//W3C//DTD SVG 1.1//EN" "http://www.w3.org/Graphics/SVG/1.1/DTD/svg11.dtd">
<svg version="1.2" width="50mm" height="15.1mm" viewBox="0 0 5000 1510" preserveAspectRatio="xMidYMid" fill-rule="evenodd" stroke-width="28.222" stroke-linejoin="round" xmlns="http://www.w3.org/2000/svg" xmlns:ooo="http://xml.openoffice.org/svg/export" xmlns:xlink="http://www.w3.org/1999/xlink" xmlns:presentation="http://sun.com/xmlns/staroffice/presentation" xmlns:smil="http://www.w3.org/2001/SMIL20/" xmlns:anim="urn:oasis:names:tc:opendocument:xmlns:animation:1.0" xmlns:svg="urn:oasis:names:tc:opendocument:xmlns:svg-compatible:1.0" xml:space="preserve">
 <defs class="ClipPathGroup">
  <clipPath id="presentation_clip_path" clipPathUnits="userSpaceOnUse">
   <rect x="0" y="0" width="5000" height="1510"/>
  </clipPath>
  <clipPath id="presentation_clip_path_shrink" clipPathUnits="userSpaceOnUse">
   <rect x="5" y="1" width="4990" height="1507"/>
  </clipPath>
 </defs>
 <defs class="TextShapeIndex">
  <g ooo:slide="id1" ooo:id-list="id3"/>
 </defs>
 <defs class="EmbeddedBulletChars">
  <g id="bullet-char-template-57356" transform="scale(0.00048828125,-0.00048828125)">
   <path d="M 580,1141 L 1163,571 580,0 -4,571 580,1141 Z"/>
  </g>
  <g id="bullet-char-template-57354" transform="scale(0.00048828125,-0.00048828125)">
   <path d="M 8,1128 L 1137,1128 1137,0 8,0 8,1128 Z"/>
  </g>
  <g id="bullet-char-template-10146" transform="scale(0.00048828125,-0.00048828125)">
   <path d="M 174,0 L 602,739 174,1481 1456,739 174,0 Z M 1358,739 L 309,1346 659,739 1358,739 Z"/>
  </g>
  <g id="bullet-char-template-10132" transform="scale(0.00048828125,-0.00048828125)">
   <path d="M 2015,739 L 1276,0 717,0 1260,543 174,543 174,936 1260,936 717,1481 1274,1481 2015,739 Z"/>
  </g>
  <g id="bullet-char-template-10007" transform="scale(0.00048828125,-0.00048828125)">
   <path d="M 0,-2 C -7,14 -16,27 -25,37 L 356,567 C 262,823 215,952 215,954 215,979 228,992 255,992 264,992 276,990 289,987 310,991 331,999 354,1012 L 381,999 492,748 772,1049 836,1024 860,1049 C 881,1039 901,1025 922,1006 886,937 835,863 770,784 769,783 710,716 594,584 L 774,223 C 774,196 753,168 711,139 L 727,119 C 717,90 699,76 672,76 641,76 570,178 457,381 L 164,-76 C 142,-110 111,-127 72,-127 30,-127 9,-110 8,-76 1,-67 -2,-52 -2,-32 -2,-23 -1,-13 0,-2 Z"/>
  </g>
  <g id="bullet-char-template-10004" transform="scale(0.00048828125,-0.00048828125)">
   <path d="M 285,-33 C 182,-33 111,30 74,156 52,228 41,333 41,471 41,549 55,616 82,672 116,743 169,778 240,778 293,778 328,747 346,684 L 369,508 C 377,444 397,411 428,410 L 1163,1116 C 1174,1127 1196,1133 1229,1133 1271,1133 1292,1118 1292,1087 L 1292,965 C 1292,929 1282,901 1262,881 L 442,47 C 390,-6 338,-33 285,-33 Z"/>
  </g>
  <g id="bullet-char-template-9679" transform="scale(0.00048828125,-0.00048828125)">
   <path d="M 813,0 C 632,0 489,54 383,161 276,268 223,411 223,592 223,773 276,916 383,1023 489,1130 632,1184 813,1184 992,1184 1136,1130 1245,1023 1353,916 1407,772 1407,592 1407,412 1353,268 1245,161 1136,54 992,0 813,0 Z"/>
  </g>
  <g id="bullet-char-template-8226" transform="scale(0.00048828125,-0.00048828125)">
   <path d="M 346,457 C 273,457 209,483 155,535 101,586 74,649 74,723 74,796 101,859 155,911 209,963 273,989 346,989 419,989 480,963 531,910 582,859 608,796 608,723 608,648 583,586 532,535 482,483 420,457 346,457 Z"/>
  </g>
  <g id="bullet-char-template-8211" transform="scale(0.00048828125,-0.00048828125)">
   <path d="M -4,459 L 1135,459 1135,606 -4,606 -4,459 Z"/>
  </g>
  <g id="bullet-char-template-61548" transform="scale(0.00048828125,-0.00048828125)">
   <path d="M 173,740 C 173,903 231,1043 346,1159 462,1274 601,1332 765,1332 928,1332 1067,1274 1183,1159 1299,1043 1357,903 1357,740 1357,577 1299,437 1183,322 1067,206 928,148 765,148 601,148 462,206 346,322 231,437 173,577 173,740 Z"/>
  </g>
 </defs>
 <g>
  <g id="id2" class="Master_Slide">
   <g id="bg-id2" class="Background"/>
   <g id="bo-id2" class="BackgroundObjects"/>
  </g>
 </g>
 <g class="SlideGroup">
  <g>
   <g id="container-id1">
    <g id="id1" class="Slide" clip-path="url(#presentation_clip_path)">
     <g class="Page">
      <defs class="SlideBackground">
       <g id="bg-id1" class="Background">
        <path fill="rgb(192,192,192)" stroke="none" d="M 2493,1502 L -7,1502 -7,-7 4992,-7 4992,1502 2493,1502 Z "/>
       </g>
      </defs>
      <g class="Graphic">
       <g id="id3">
        <rect class="BoundingBox" stroke="none" fill="none" x="326" y="224" width="4069" height="1084"/>
        <defs>
         <clipPath id="clip_path_1" clipPathUnits="userSpaceOnUse">
          <path d="M 326,224 L 4394,224 4394,1307 326,1307 326,224 Z "/>
         </clipPath>
        </defs>
        <g clip-path="url(#clip_path_1)"/>
        <defs>
         <clipPath id="clip_path_2" clipPathUnits="userSpaceOnUse">
          <path d="M 326,224 L 4394,224 4394,1307 326,1307 326,224 Z "/>
         </clipPath>
        </defs>
        <g clip-path="url(#clip_path_2)">
         <path fill="rgb(255,255,194)" stroke="none" d="M 4567,275 L 4781,275 4781,329 4624,329 4624,446 4759,446 4759,500 4624,500 4624,623 4786,623 4786,674 4567,674 4567,275 4567,275 Z "/>
         <path fill="rgb(255,255,194)" stroke="none" d="M 4832,524 C 4832,437 4889,368 4970,368 5035,368 5086,410 5100,479 L 5043,479 C 5035,446 5005,422 4970,422 4919,422 4886,467 4886,524 4886,584 4921,626 4973,626 5008,626 5038,602 5046,569 L 5100,569 C 5089,638 5032,680 4970,680 4889,680 4832,614 4832,524 L 4832,524 Z "/>
         <path fill="rgb(255,255,194)" stroke="none" d="M 5149,524 C 5149,434 5208,368 5292,368 5376,368 5433,437 5433,524 5433,614 5373,680 5292,680 5208,680 5149,614 5149,524 L 5149,524 Z M 5379,524 C 5379,464 5343,422 5292,422 5241,422 5205,464 5205,524 5205,584 5241,626 5292,626 5341,626 5379,584 5379,524 L 5379,524 Z "/>
         <path fill="rgb(255,255,194)" stroke="none" d="M 5487,599 L 5487,248 5541,248 5541,599 C 5541,614 5549,623 5563,623 L 5574,623 5574,674 5549,674 C 5509,674 5487,647 5487,599 L 5487,599 Z "/>
         <path fill="rgb(255,255,194)" stroke="none" d="M 5614,527 C 5614,431 5671,371 5749,371 5833,371 5882,440 5882,524 L 5882,545 5671,545 C 5674,596 5703,632 5755,632 5790,632 5817,614 5828,584 L 5879,584 C 5866,641 5817,680 5752,680 5668,680 5614,614 5614,527 L 5614,527 Z M 5825,497 C 5822,446 5790,419 5747,419 5706,419 5671,452 5668,497 L 5825,497 5825,497 Z "/>
         <path fill="rgb(255,255,194)" stroke="none" d="M 6109,578 L 6109,425 6061,425 6061,377 6096,377 C 6104,377 6112,371 6112,359 L 6112,293 6163,293 6163,377 6242,377 6242,425 6163,425 6163,578 C 6163,608 6174,623 6201,623 L 6237,623 6237,674 6191,674 C 6142,674 6109,641 6109,578 L 6109,578 Z "/>
         <path fill="rgb(255,255,194)" stroke="none" d="M 6288,527 C 6288,431 6345,371 6423,371 6507,371 6556,440 6556,524 L 6556,545 6345,545 C 6348,596 6377,632 6429,632 6464,632 6491,614 6502,584 L 6553,584 C 6540,641 6491,680 6426,680 6342,680 6288,614 6288,527 L 6288,527 Z M 6499,497 C 6496,446 6464,419 6421,419 6380,419 6345,452 6342,497 L 6499,497 6499,497 Z "/>
         <path fill="rgb(255,255,194)" stroke="none" d="M 6599,524 C 6599,437 6656,368 6737,368 6802,368 6856,410 6867,479 L 6810,479 C 6802,446 6772,422 6737,422 6686,422 6653,467 6653,524 6653,584 6688,626 6740,626 6775,626 6805,602 6813,569 L 6867,569 C 6856,638 6799,680 6737,680 6656,680 6599,614 6599,524 L 6599,524 Z "/>
         <path fill="rgb(255,255,194)" stroke="none" d="M 6935,248 L 6989,248 6989,416 6992,416 C 7002,392 7029,368 7070,368 7132,368 7170,419 7170,482 L 7170,674 7116,674 7116,494 C 7116,452 7089,425 7054,425 7019,425 6986,455 6986,497 L 6986,674 6932,674 6932,248 6935,248 Z "/>
         <path fill="rgb(255,255,194)" stroke="none" d="M 7249,377 L 7300,377 7300,416 7303,416 C 7314,392 7341,368 7381,368 7444,368 7479,419 7479,482 L 7479,674 7425,674 7425,494 C 7425,452 7398,425 7365,425 7327,425 7300,458 7300,500 L 7300,674 7246,674 7246,377 7249,377 Z "/>
         <path fill="rgb(255,255,194)" stroke="none" d="M 7552,290 C 7552,269 7568,251 7587,251 7609,251 7622,266 7622,290 7622,314 7606,329 7587,329 7565,329 7552,314 7552,290 L 7552,290 Z M 7560,377 L 7614,377 7614,674 7560,674 7560,377 7560,377 Z "/>
         <path fill="rgb(255,255,194)" stroke="none" d="M 7890,632 L 7887,632 C 7879,647 7852,683 7801,683 7725,683 7674,617 7674,527 7674,434 7728,371 7803,371 7858,371 7882,410 7890,422 L 7893,422 7893,377 7947,377 7947,807 7893,807 7893,632 7890,632 Z M 7893,524 C 7893,467 7860,422 7809,422 7760,422 7725,461 7725,524 7725,584 7760,626 7809,626 7858,626 7893,590 7893,524 L 7893,524 Z "/>
         <path fill="rgb(255,255,194)" stroke="none" d="M 8020,566 L 8020,377 8074,377 8074,557 C 8074,599 8101,626 8134,626 8172,626 8199,593 8199,551 L 8199,377 8253,377 8253,674 8201,674 8201,635 8199,635 C 8188,659 8161,683 8120,683 8058,680 8020,632 8020,566 L 8020,566 Z "/>
         <path fill="rgb(255,255,194)" stroke="none" d="M 8312,527 C 8312,431 8369,371 8448,371 8531,371 8580,440 8580,524 L 8580,545 8369,545 C 8372,596 8402,632 8453,632 8488,632 8515,614 8526,584 L 8577,584 C 8564,641 8515,680 8450,680 8369,680 8312,614 8312,527 L 8312,527 Z M 8526,497 C 8523,446 8491,419 8448,419 8407,419 8372,452 8369,497 L 8526,497 8526,497 Z "/>
         <path fill="rgb(255,255,194)" stroke="none" d="M 4567,906 L 4781,906 4781,960 4624,960 4624,1077 4759,1077 4759,1131 4624,1131 4624,1254 4786,1254 4786,1305 4567,1305 4567,906 4567,906 Z "/>
         <path fill="rgb(255,255,194)" stroke="none" d="M 4832,1155 C 4832,1068 4889,999 4970,999 5035,999 5086,1041 5100,1110 L 5043,1110 C 5035,1077 5005,1053 4970,1053 4919,1053 4886,1098 4886,1155 4886,1215 4921,1257 4973,1257 5008,1257 5038,1233 5046,1200 L 5100,1200 C 5089,1269 5032,1311 4970,1311 4889,1311 4832,1245 4832,1155 L 4832,1155 Z "/>
         <path fill="rgb(255,255,194)" stroke="none" d="M 5149,1155 C 5149,1065 5208,999 5292,999 5376,999 5433,1068 5433,1155 5433,1245 5373,1311 5292,1311 5208,1311 5149,1245 5149,1155 L 5149,1155 Z M 5379,1155 C 5379,1095 5343,1053 5292,1053 5241,1053 5205,1095 5205,1155 5205,1215 5241,1257 5292,1257 5341,1257 5379,1215 5379,1155 L 5379,1155 Z "/>
         <path fill="rgb(255,255,194)" stroke="none" d="M 5487,1230 L 5487,879 5541,879 5541,1230 C 5541,1245 5549,1254 5563,1254 L 5574,1254 5574,1305 5549,1305 C 5509,1305 5487,1278 5487,1230 L 5487,1230 Z "/>
         <path fill="rgb(255,255,194)" stroke="none" d="M 5614,1158 C 5614,1062 5671,1002 5749,1002 5833,1002 5882,1071 5882,1155 L 5882,1176 5671,1176 C 5674,1227 5703,1263 5755,1263 5790,1263 5817,1245 5828,1215 L 5879,1215 C 5866,1272 5817,1311 5752,1311 5668,1311 5614,1245 5614,1158 L 5614,1158 Z M 5825,1128 C 5822,1077 5790,1050 5747,1050 5706,1050 5671,1083 5668,1128 L 5825,1128 5825,1128 Z "/>
         <path fill="rgb(255,255,194)" stroke="none" d="M 6066,1158 C 6066,1065 6120,1002 6193,1002 6245,1002 6272,1038 6280,1053 L 6283,1053 6283,879 6337,879 6337,1305 6283,1305 6283,1263 6280,1263 C 6272,1275 6247,1314 6193,1314 6117,1311 6066,1248 6066,1158 L 6066,1158 Z M 6285,1155 C 6285,1092 6250,1053 6201,1053 6153,1053 6117,1095 6117,1155 6117,1218 6153,1257 6201,1257 6255,1257 6285,1212 6285,1155 L 6285,1155 Z "/>
         <path fill="rgb(255,255,194)" stroke="none" d="M 6396,1158 C 6396,1062 6453,1002 6532,1002 6615,1002 6664,1071 6664,1155 L 6664,1176 6453,1176 C 6456,1227 6486,1263 6537,1263 6572,1263 6599,1245 6610,1215 L 6661,1215 C 6648,1272 6599,1311 6534,1311 6450,1311 6396,1245 6396,1158 L 6396,1158 Z M 6610,1128 C 6607,1077 6575,1050 6532,1050 6491,1050 6456,1083 6453,1128 L 6610,1128 6610,1128 Z "/>
         <path fill="rgb(255,255,194)" stroke="none" d="M 6713,1218 L 6764,1218 C 6767,1248 6789,1266 6824,1266 6859,1266 6878,1248 6878,1221 6878,1149 6721,1209 6721,1089 6721,1038 6762,1002 6824,1002 6878,1002 6921,1035 6924,1092 L 6875,1092 C 6873,1068 6854,1050 6821,1050 6791,1050 6772,1065 6772,1089 6772,1155 6932,1095 6932,1221 6932,1278 6891,1317 6824,1317 6753,1311 6716,1275 6713,1218 L 6713,1218 Z "/>
         <path fill="rgb(255,255,194)" stroke="none" d="M 7140,1008 L 7192,1008 7192,1047 7195,1047 C 7205,1023 7232,999 7270,999 7308,999 7338,1020 7352,1050 L 7354,1050 C 7373,1014 7400,999 7438,999 7498,999 7536,1044 7536,1110 L 7536,1305 7481,1305 7481,1131 C 7481,1083 7460,1056 7425,1056 7389,1056 7362,1083 7362,1131 L 7362,1305 7308,1305 7308,1122 C 7308,1080 7284,1053 7251,1053 7216,1053 7192,1083 7192,1128 L 7192,1305 7138,1305 7138,1008 7140,1008 Z "/>
         <path fill="rgb(255,255,194)" stroke="none" d="M 7598,1158 C 7598,1062 7655,1002 7733,1002 7817,1002 7866,1071 7866,1155 L 7866,1176 7655,1176 C 7657,1227 7687,1263 7739,1263 7774,1263 7801,1245 7812,1215 L 7863,1215 C 7849,1272 7801,1311 7736,1311 7652,1311 7598,1245 7598,1158 L 7598,1158 Z M 7809,1128 C 7806,1077 7774,1050 7730,1050 7690,1050 7655,1083 7652,1128 L 7809,1128 7809,1128 Z M 7736,879 L 7793,879 7747,957 7706,957 7736,879 7736,879 Z "/>
         <path fill="rgb(255,255,194)" stroke="none" d="M 7955,1209 L 7955,1056 7906,1056 7906,1008 7942,1008 C 7950,1008 7958,1002 7958,990 L 7958,924 8009,924 8009,1008 8088,1008 8088,1056 8009,1056 8009,1209 C 8009,1239 8020,1254 8047,1254 L 8082,1254 8082,1305 8039,1305 C 7988,1305 7955,1272 7955,1209 L 7955,1209 Z "/>
         <path fill="rgb(255,255,194)" stroke="none" d="M 8144,921 C 8144,900 8161,882 8180,882 8201,882 8215,897 8215,921 8215,945 8199,960 8180,960 8158,960 8144,945 8144,921 L 8144,921 Z M 8153,1008 L 8207,1008 8207,1305 8153,1305 8153,1008 8153,1008 Z "/>
         <path fill="rgb(255,255,194)" stroke="none" d="M 8264,1158 C 8264,1062 8320,1002 8399,1002 8483,1002 8531,1071 8531,1155 L 8531,1176 8320,1176 C 8323,1227 8353,1263 8404,1263 8439,1263 8467,1245 8477,1215 L 8529,1215 C 8515,1272 8467,1311 8402,1311 8318,1311 8264,1245 8264,1158 L 8264,1158 Z M 8477,1128 C 8475,1077 8442,1050 8399,1050 8358,1050 8323,1083 8320,1128 L 8477,1128 8477,1128 Z "/>
         <path fill="rgb(255,255,194)" stroke="none" d="M 8596,1008 L 8648,1008 8648,1059 8651,1059 C 8659,1035 8686,1008 8724,1008 L 8748,1008 8748,1065 8724,1065 C 8678,1065 8651,1104 8651,1158 L 8651,1305 8596,1305 8596,1008 8596,1008 Z "/>
         <path fill="rgb(255,255,194)" stroke="none" d="M 8780,1218 L 8832,1218 C 8835,1248 8856,1266 8891,1266 8927,1266 8946,1248 8946,1221 8946,1149 8789,1209 8789,1089 8789,1038 8829,1002 8891,1002 8946,1002 8989,1035 8992,1092 L 8943,1092 C 8940,1068 8921,1050 8889,1050 8859,1050 8840,1065 8840,1089 8840,1155 9000,1095 9000,1221 9000,1278 8959,1317 8891,1317 8821,1311 8783,1275 8780,1218 L 8780,1218 Z "/>
         <path fill="rgb(255,255,194)" stroke="none" d="M 4567,1536 L 4624,1536 4624,1882 4772,1882 4772,1936 4567,1936 4567,1536 4567,1536 Z "/>
         <path fill="rgb(255,255,194)" stroke="none" d="M 4808,1788 C 4808,1695 4862,1632 4935,1632 4986,1632 5013,1668 5021,1683 L 5024,1683 5024,1641 5078,1641 5078,1936 5024,1936 5024,1894 5021,1894 C 5013,1906 4989,1945 4935,1945 4862,1942 4808,1879 4808,1788 L 4808,1788 Z M 5030,1785 C 5030,1722 4994,1683 4946,1683 4897,1683 4862,1725 4862,1785 4862,1849 4897,1888 4946,1888 4997,1888 5030,1842 5030,1785 L 5030,1785 Z "/>
         <path fill="rgb(255,255,194)" stroke="none" d="M 5154,1827 L 5154,1635 5208,1635 5208,1815 C 5208,1858 5235,1885 5268,1885 5306,1885 5333,1852 5333,1809 L 5333,1635 5387,1635 5387,1936 5335,1936 5335,1897 5333,1897 C 5322,1921 5295,1945 5254,1945 5192,1942 5154,1894 5154,1827 L 5154,1827 Z "/>
         <path fill="rgb(255,255,194)" stroke="none" d="M 5452,1849 L 5503,1849 C 5506,1879 5527,1897 5563,1897 5598,1897 5617,1879 5617,1852 5617,1779 5460,1839 5460,1719 5460,1668 5500,1632 5563,1632 5617,1632 5660,1665 5663,1722 L 5614,1722 C 5611,1698 5592,1680 5560,1680 5530,1680 5511,1695 5511,1719 5511,1785 5671,1725 5671,1852 5671,1909 5630,1948 5563,1948 5492,1942 5457,1906 5452,1849 L 5452,1849 Z "/>
         <path fill="rgb(255,255,194)" stroke="none" d="M 5722,1788 C 5722,1695 5776,1632 5850,1632 5901,1632 5928,1668 5936,1683 L 5939,1683 5939,1641 5993,1641 5993,1936 5939,1936 5939,1894 5936,1894 C 5928,1906 5904,1945 5850,1945 5774,1942 5722,1879 5722,1788 L 5722,1788 Z M 5942,1785 C 5942,1722 5906,1683 5858,1683 5809,1683 5774,1725 5774,1785 5774,1849 5809,1888 5858,1888 5912,1888 5942,1842 5942,1785 L 5942,1785 Z "/>
         <path fill="rgb(255,255,194)" stroke="none" d="M 6071,1638 L 6123,1638 6123,1677 6126,1677 C 6136,1653 6163,1629 6204,1629 6266,1629 6301,1680 6301,1743 L 6301,1936 6247,1936 6247,1755 C 6247,1713 6220,1686 6188,1686 6150,1686 6123,1719 6123,1761 L 6123,1936 6069,1936 6069,1638 6071,1638 Z "/>
         <path fill="rgb(255,255,194)" stroke="none" d="M 6383,1638 L 6434,1638 6434,1677 6437,1677 C 6448,1653 6475,1629 6515,1629 6578,1629 6613,1680 6613,1743 L 6613,1936 6559,1936 6559,1755 C 6559,1713 6532,1686 6499,1686 6461,1686 6434,1719 6434,1761 L 6434,1936 6380,1936 6380,1638 6383,1638 Z "/>
         <path fill="rgb(255,255,194)" stroke="none" d="M 6675,1788 C 6675,1692 6732,1632 6810,1632 6894,1632 6943,1701 6943,1785 L 6943,1806 6732,1806 C 6735,1858 6764,1894 6816,1894 6851,1894 6878,1876 6889,1845 L 6940,1845 C 6927,1903 6878,1942 6813,1942 6729,1942 6675,1876 6675,1788 L 6675,1788 Z M 6889,1758 C 6886,1707 6854,1680 6810,1680 6770,1680 6735,1713 6732,1758 L 6889,1758 6889,1758 Z "/>
         <path fill="rgb(255,255,255)" stroke="none" d="M 2797,1275 L 2970,1275 2970,746 2970,746 C 2970,692 2932,650 2883,650 L 2797,650 2797,1275 2797,1275 Z "/>
         <path fill="rgb(255,255,255)" stroke="none" d="M 3181,1275 L 3354,1275 3354,749 C 3354,461 3143,224 2881,224 L 2407,224 2407,1275 2580,1275 2580,416 2881,416 C 3046,416 3181,566 3181,749 L 3181,1275 3181,1275 Z "/>
         <path fill="rgb(255,255,255)" stroke="none" d="M 1725,1275 L 1898,1275 1898,653 1725,653 1725,1275 Z "/>
         <path fill="rgb(255,255,255)" stroke="none" d="M 2109,653 L 2283,653 2283,224 1341,224 1341,653 1511,653 1511,416 2109,416 2109,653 Z "/>
         <path fill="rgb(255,255,255)" stroke="none" d="M 3519,224 L 3519,873 C 3519,1095 3682,1275 3882,1275 L 4256,1275 4256,1083 3882,1083 C 3777,1083 3693,990 3693,873 L 3693,224 3519,224 3519,224 Z "/>
         <path fill="rgb(255,255,255)" stroke="none" d="M 326,224 L 326,749 C 326,1041 537,1275 800,1275 L 1214,1275 1214,1083 800,1083 C 635,1083 499,933 499,749 L 499,416 1214,416 1214,224 326,224 326,224 Z "/>
         <path fill="rgb(255,255,255)" stroke="none" d="M 710,653 L 710,749 C 710,804 748,846 797,846 L 1141,846 1141,653 710,653 710,653 Z "/>
        </g>
        <g clip-path="url(#clip_path_1)"/>
       </g>
      </g>
     </g>
    </g>
   </g>
  </g>
 </g>
</svg>