<?xml version="1.0" encoding="UTF-8" standalone="no"?>
<svg
   xmlns:dc="http://purl.org/dc/elements/1.1/"
   xmlns:cc="http://creativecommons.org/ns#"
   xmlns:rdf="http://www.w3.org/1999/02/22-rdf-syntax-ns#"
   xmlns:svg="http://www.w3.org/2000/svg"
   xmlns="http://www.w3.org/2000/svg"
   xmlns:sodipodi="http://sodipodi.sourceforge.net/DTD/sodipodi-0.dtd"
   xmlns:inkscape="http://www.inkscape.org/namespaces/inkscape"
   version="1.0"
   width="479.000000pt"
   height="607.000000pt"
   viewBox="0 0 479.000000 607.000000"
   preserveAspectRatio="xMidYMid meet"
   id="svg3778"
   sodipodi:docname="ghost_empty.svg"
   inkscape:version="0.92.5 (2060ec1f9f, 2020-04-08)"
   enable-background="new">
  <metadata
     id="metadata3784">
    <rdf:RDF>
      <cc:Work
         rdf:about="">
        <dc:format>image/svg+xml</dc:format>
        <dc:type
           rdf:resource="http://purl.org/dc/dcmitype/StillImage" />
        <dc:title></dc:title>
      </cc:Work>
    </rdf:RDF>
  </metadata>
  <defs
     id="defs3782">
    <filter
       inkscape:collect="always"
       style="color-interpolation-filters:sRGB"
       id="filter3820">
      <feBlend
         inkscape:collect="always"
         mode="color-dodge"
         in2="BackgroundImage"
         id="feBlend3822" />
    </filter>
  </defs>
  <sodipodi:namedview
     pagecolor="#ffffff"
     bordercolor="#666666"
     borderopacity="1"
     objecttolerance="10"
     gridtolerance="10"
     guidetolerance="10"
     inkscape:pageopacity="0"
     inkscape:pageshadow="2"
     inkscape:window-width="1917"
     inkscape:window-height="987"
     id="namedview3780"
     showgrid="false"
     inkscape:zoom="0.82476376"
     inkscape:cx="77.691355"
     inkscape:cy="455.45013"
     inkscape:window-x="0"
     inkscape:window-y="0"
     inkscape:window-maximized="1"
     inkscape:current-layer="layer4" />
  <g
     transform="translate(0.000000,607.000000) scale(0.100000,-0.100000)"
     fill="#000000"
     stroke="none"
     id="g3776">
    <path
       d="M2225 6064 c-16 -2 -73 -9 -125 -15 -567 -64 -1132 -365 -1509 -804 -278 -324 -461 -692 -541 -1094 -49 -246 -50 -263 -50 -2037 0 -1064 4 -1681 10 -1715 22 -118 108 -245 216 -320 101 -70 269 -97 393 -64 134 35 260 138 320 260 l32 66 34 -68 c59 -118 160 -205 288 -248 127 -42 260 -31 384 31 76 39 172 138 212 219 l32 66 34 -68 c59 -118 160 -205 288 -248 127 -42 260 -31 384 31 76 39 172 138 212 219 l32 66 34 -68 c59 -118 160 -205 288 -248 127 -42 260 -31 384 31 76 39 172 138 212 219 l32 66 34 -68 c36 -71 101 -146 171 -194 101 -70 269 -97 393 -64 180 47 326 202 361 380 8 44 10 522 8 1795 -4 1887 -1 1774 -59 2024 -146 634 -552 1186 -1119 1523 -265 158 -559 260 -885 309 -96 14 -439 27 -500 18z m355 -44 c464 -40 863 -192 1237 -471 128 -95 371 -338 461 -460 242 -331 378 -653 449 -1069 16 -98 18 -229 21 -1835 2 -1298 0 -1744 -8 -1785 -19 -86 -60 -159 -125 -226 -262 -262 -705 -118 -768 251 -9 52 -15 65 -29 65 -13 0 -18 -8 -18 -27 -1 -91 -56 -208 -135 -288 -262 -263 -705 -119 -768 250 -9 52 -15 65 -29 65 -13 0 -18 -8 -18 -27 -1 -91 -56 -208 -135 -288 -262 -263 -705 -119 -768 250 -9 52 -15 65 -29 65 -13 0 -18 -8 -18 -27 -1 -91 -56 -208 -135 -288 -262 -263 -705 -119 -768 250 -8 48 -15 65 -27 65 -12 0 -18 -17 -26 -68 -15 -94 -58 -176 -129 -248 -145 -145 -347 -174 -537 -78 -62 31 -151 121 -183 184 -58 114 -55 19 -55 1820 0 1020 4 1697 10 1765 50 553 274 1048 650 1439 489 508 1191 776 1880 716z"
       id="path3774" />
  </g>
  <g
     inkscape:groupmode="layer"
     id="layer2"
     inkscape:label="background"
     style="display:inline;filter:url(#filter3820)">
    <path
       style="fill:#fff6d5;stroke-width:1.21246839"
       d="M 54.008918,801.95085 C 36.225013,797.87799 20.06995,785.31326 12.284974,769.49973 8.8352934,762.49244 8.2445406,759.7806 7.2820497,746.53395 5.8512832,726.84248 5.8763843,325.03421 7.3099528,299.87493 10.963563,235.75371 35.053426,173.74067 76.076081,122.85454 88.536552,107.39808 114.91822,81.724153 129.83142,70.541292 197.22757,20.003401 277.54012,-1.588016 358.80627,8.9831444 399.05826,14.219153 435.38648,25.993955 469.88558,44.986479 541.68492,84.513613 597.59216,153.95039 620.05932,231.50225 c 5.2373,18.07799 9.40181,38.75943 10.4827,52.05823 1.42861,17.57686 2.7983,403.34954 1.57563,443.77464 l -0.97377,32.19549 -4.6777,9.4625 c -8.823,17.84798 -25.67075,30.39835 -45.18591,33.66026 -10.52007,1.75839 -23.74818,-0.40333 -35.08231,-5.73311 -15.41595,-7.24922 -28.73447,-25.02086 -32.52397,-43.39851 -0.94174,-4.56701 -2.29008,-8.88149 -2.99633,-9.58774 -2.34736,-2.34737 -4.65875,1.2687 -5.39968,8.44755 -1.43701,13.92332 -13.90843,32.84528 -27.32097,41.45208 -17.70402,11.36064 -38.42264,12.42152 -58.17354,2.97873 -16.62752,-7.94951 -28.07381,-22.88495 -32.38308,-42.25434 -1.97796,-8.89055 -4.12643,-12.46772 -6.57813,-10.95248 -0.69607,0.43019 -1.27205,2.2504 -1.27997,4.0449 -0.0244,5.51447 -3.13006,15.33558 -7.35818,23.26833 -12.28362,23.04645 -38.81073,36.15659 -63.12611,31.19798 -25.26857,-5.153 -42.94628,-22.8007 -48.71693,-48.63421 -3.00713,-13.46203 -6.48151,-13.96107 -8.21592,-1.18008 -1.24464,9.17179 -8.18614,22.9611 -15.69367,31.17554 -18.43991,20.1762 -45.01992,25.30156 -69.79573,13.45853 -16.20705,-7.74709 -27.49957,-22.06749 -32.15322,-40.7745 -4.02565,-16.18257 -6.50883,-16.60278 -9.52282,-1.61145 -6.5253,32.45631 -39.630775,54.57316 -70.950792,47.40026 z"
       id="path3787"
       inkscape:connector-curvature="0"
       transform="scale(0.75)" />
  </g>
  <g
     inkscape:groupmode="layer"
     id="layer4"
     inkscape:label="expressions"
     style="display:none">
    <path
       style="display:inline;fill:#000000;stroke-width:1;filter:url(#filter3820)"
       id="path3796-6"
       sodipodi:type="arc"
       sodipodi:cx="197.94081"
       sodipodi:cy="54.760971"
       sodipodi:rx="51.529907"
       sodipodi:ry="53.954838"
       sodipodi:start="0"
       sodipodi:end="6.2748563"
       d="M 249.47072,54.760971 A 51.529907,53.954838 0 0 1 198.04811,108.71569 51.529907,53.954838 0 0 1 146.41135,54.985666 51.529907,53.954838 0 0 1 197.61892,0.80718598 51.529907,53.954838 0 0 1 249.46893,54.311586"
       sodipodi:open="true"
       transform="matrix(0.75,0,0,0.75,141.06111,161.28145)" />
    <path
       style="display:inline;fill:#000000;stroke-width:1;filter:url(#filter3820)"
       id="path3817"
       sodipodi:type="arc"
       sodipodi:cx="192.78249"
       sodipodi:cy="384.35251"
       sodipodi:rx="44.255096"
       sodipodi:ry="16.368324"
       sodipodi:start="0"
       sodipodi:end="6.2748601"
       sodipodi:open="true"
       d="m 237.03758,384.35251 a 44.255096,16.368324 0 0 1 -44.16299,16.36829 44.255096,16.368324 0 0 1 -44.34682,-16.30016 44.255096,16.368324 0 0 1 43.97839,-16.43614 44.255096,16.368324 0 0 1 44.52989,16.23174"
       transform="matrix(0.75,0,0,0.75,141.06111,161.28145)" />
    <path
       style="display:inline;fill:#000000;stroke-width:1;filter:url(#filter3820)"
       id="path3796"
       sodipodi:type="arc"
       sodipodi:cx="51.529907"
       sodipodi:cy="53.954838"
       sodipodi:rx="51.529907"
       sodipodi:ry="53.954838"
       sodipodi:start="0"
       sodipodi:end="6.2748563"
       d="M 103.05981,53.954838 A 51.529907,53.954838 0 0 1 51.637205,107.90956 51.529907,53.954838 0 0 1 4.4684327e-4,54.179532 51.529907,53.954838 0 0 1 51.208015,0.00105271 51.529907,53.954838 0 0 1 103.05803,53.505453"
       sodipodi:open="true"
       transform="matrix(0.75,0,0,0.75,141.06111,161.28145)" />
  </g>
</svg>
